<svg xmlns="http://www.w3.org/2000/svg" width="512" height="512" fill="none" xmlns:v="https://vecta.io/nano"><path d="M414 263c0 92.232-74.768 167-167 167S80 355.232 80 263 154.768 96 247 96s167 74.768 167 167z" fill="#fff"/><path d="M408.864 460.231c.003-13.727 5.433-26.889 15.101-36.594s22.785-15.152 36.456-15.152a51.36 51.36 0 0 1 19.734 3.925c6.258 2.598 11.942 6.41 16.733 11.216a51.76 51.76 0 0 1 11.181 16.79c2.594 6.281 3.929 13.015 3.931 19.815a51.98 51.98 0 0 1-3.931 19.816c-2.594 6.282-6.391 11.994-11.181 16.801a51.54 51.54 0 0 1-16.733 11.216A51.37 51.37 0 0 1 460.421 512a51.47 51.47 0 0 1-36.456-15.163c-9.668-9.707-15.098-22.878-15.101-36.606zm-258.929-2.969L40.647 347.525a139.39 139.39 0 0 1-30.089-45.205C3.584 285.415 0 267.303 0 249.004s3.584-36.422 10.558-53.327a139.39 139.39 0 0 1 30.089-45.205L149.935 40.826a138.68 138.68 0 0 1 45.009-30.213A138.21 138.21 0 0 1 248.042 0c18.22 0 36.253 3.609 53.086 10.613a138.68 138.68 0 0 1 45.009 30.213l109.242 109.646c12.889 12.937 23.114 28.3 30.089 45.205a139.82 139.82 0 0 1 10.57 53.327c0 18.299-3.594 36.411-10.57 53.316s-17.2 32.268-30.089 45.205L346.137 457.262c-12.873 12.952-28.171 23.228-45.009 30.224s-34.886 10.576-53.109 10.545a137.54 137.54 0 0 1-53.098-10.533c-16.834-6.997-32.125-17.277-44.986-30.236zm-4.497-311.261c-13.523 13.499-24.243 29.552-31.539 47.242s-11.024 36.66-10.967 55.807c-.052 19.139 3.682 38.103 10.978 55.784s18.01 33.725 31.528 47.219c13.441 13.565 29.428 24.328 47.036 31.646a143.56 143.56 0 0 0 55.545 10.988c19.057.059 37.936-3.682 55.545-11s33.594-18.07 47.036-31.634c27.167-27.341 42.426-64.382 42.426-103.003s-15.259-75.663-42.426-103.003c-13.444-13.581-29.432-24.346-47.048-31.68a143.74 143.74 0 0 0-55.578-11.046c-19.052-.036-37.923 3.72-55.522 11.046a144.21 144.21 0 0 0-47.014 31.634zm52.565 153.361c-6.607-6.576-11.85-14.408-15.419-23.034s-5.391-17.881-5.369-27.221a70.76 70.76 0 0 1 5.358-27.244 70.6 70.6 0 0 1 15.43-23.058 70.03 70.03 0 0 1 22.94-15.47c8.595-3.576 17.807-5.397 27.11-5.358 9.307-.036 18.533 1.782 27.132 5.358a70.19 70.19 0 0 1 22.963 15.47 70.47 70.47 0 0 1 15.407 23.058 70.7 70.7 0 0 1 5.336 27.244c.033 9.338-1.786 18.594-5.347 27.221a70.45 70.45 0 0 1-15.396 23.034c-6.56 6.633-14.365 11.888-22.963 15.471s-17.823 5.422-27.132 5.403c-9.313.03-18.531-1.797-27.132-5.38a70.23 70.23 0 0 1-22.964-15.494h.046z" fill="url(#A)"/><defs><linearGradient id="A" x1="2091.08" y1="256" x2="0" y2="256" gradientUnits="userSpaceOnUse"><stop stop-color="#80307c"/><stop offset="1" stop-color="#f05ba7"/></linearGradient></defs></svg>